# xmcd
#
# Track frame offsets:
#	150
#	15649
#	29229
#	44452
#	58349
#	74266
#	88235
#	103004
#	118576
#	134375
#	147780
#	161270
#	175096
#	194107
#
# Disc length: 2787 seconds
#
# Revision: 1
# Processed by: cddbd v1.5.1PL2 Copyright (c) Steve Scherf et al.
# Submitted via: audiograbber 1.83.01
#
DISCID=d10ae10e
DTITLE=Star Disc - SD135
DYEAR=1900
DGENRE=Karaoke
TTITLE0=Wilson, Gretchen - All Jacked Up
TTITLE1=Strait, George - Texas
TTITLE2=McBride, Martina - I Never Promised You A Rose Garden
TTITLE3=Nichols, Joe - Tequila Makes Her Clothes Fall Off
TTITLE4=Worley, Darryl - I Love Her, She Hates Me
TTITLE5=Bates, Jeff - Good People
TTITLE6=Andrews, Jessica - Summer Girl
TTITLE7=Anderson, Keith - XXL
TTITLE8=Turner, Josh - Your Man
TTITLE9=Tippin, Aaron - Come Friday
TTITLE10=Scott, Ray - My Kind Of Music
TTITLE11=Jewell, Buddy - So Gone
TTITLE12=Stricklin, Luke - American By God's Amazing Grace
TTITLE13=Britt, Catherine and Elton John - Where We Both Say Goodbye
EXTD=
EXTT0=
EXTT1=
EXTT2=
EXTT3=
EXTT4=
EXTT5=
EXTT6=
EXTT7=
EXTT8=
EXTT9=
EXTT10=
EXTT11=
EXTT12=
EXTT13=
PLAYORDER=
